<svg xmlns="http://www.w3.org/2000/svg" width="128" height="128" viewBox="0 0 128 128">
  <title>HEADSET</title>
  <g>
    <path d="M50.3,9.074a21.4,21.4,0,0,0-18.61-3.808C15.2,9.583,5.658,16.617,5.26,16.914a1.749,1.749,0,0,0-.7,1.4V52.2a1.748,1.748,0,0,0,.7,1.4c.452.338,11.041,8.13,29.171,12.321v35.772a5.756,5.756,0,0,0,5.75,5.75h4.68v14.251a1.75,1.75,0,0,0,3.5,0V107.442h4.681a5.757,5.757,0,0,0,5.75-5.75V26.349A21.673,21.673,0,0,0,50.3,9.074Zm2.745,94.868H40.181a2.252,2.252,0,0,1-2.25-2.25V96.257H55.292v5.435A2.252,2.252,0,0,1,53.042,103.942Zm2.25-11.185H37.931V55.576a9.8,9.8,0,0,0-6.308-9.123L28.1,45.124A1.75,1.75,0,1,0,26.865,48.4l3.522,1.329a6.283,6.283,0,0,1,4.044,5.848v6.739A84.453,84.453,0,0,1,8.057,51.282V19.229A82.808,82.808,0,0,1,32.574,8.652a17.9,17.9,0,0,1,15.585,3.193,18.2,18.2,0,0,1,7.133,14.5Z" fill="#241c49" stroke="#0a2119" stroke-miterlimit="10"/>
    <path d="M18.307,26.14a1.749,1.749,0,0,0-1.75,1.75V42.623a1.75,1.75,0,0,0,3.5,0V27.89A1.75,1.75,0,0,0,18.307,26.14Z" fill="#241c49" stroke="#0a2119" stroke-miterlimit="10"/>
    <path d="M122.74,16.914c-.4-.3-9.942-7.331-26.428-11.648A21.4,21.4,0,0,0,77.7,9.074a21.673,21.673,0,0,0-8.5,17.275v75.343a5.757,5.757,0,0,0,5.75,5.75h4.681v14.251a1.75,1.75,0,0,0,3.5,0V107.442h4.68a5.756,5.756,0,0,0,5.75-5.75V65.92C111.7,61.729,122.288,53.937,122.74,53.6a1.748,1.748,0,0,0,.7-1.4V18.316A1.749,1.749,0,0,0,122.74,16.914ZM87.819,103.942H74.958a2.252,2.252,0,0,1-2.25-2.25V96.257H90.069v5.435A2.252,2.252,0,0,1,87.819,103.942Zm32.124-52.659A84.1,84.1,0,0,1,93.569,62.315V55.576a6.279,6.279,0,0,1,4.044-5.847l3.522-1.33A1.75,1.75,0,1,0,99.9,45.124l-3.523,1.329a9.8,9.8,0,0,0-6.308,9.123V92.757H72.708V26.349a18.2,18.2,0,0,1,7.133-14.5A17.914,17.914,0,0,1,95.426,8.652,83.178,83.178,0,0,1,119.943,19.23Z" fill="#241c49" stroke="#0a2119" stroke-miterlimit="10"/>
    <path d="M109.693,44.373a1.749,1.749,0,0,0,1.75-1.75V27.89a1.75,1.75,0,0,0-3.5,0V42.623A1.75,1.75,0,0,0,109.693,44.373Z" fill="#241c49" stroke="#0a2119" stroke-miterlimit="10"/>
  </g>
</svg>
